<svg width="32" height="32" viewBox="0 0 32 32" fill="none" xmlns="http://www.w3.org/2000/svg">
<path d="M2 5.66667C2 4.69421 2.38631 3.76158 3.07394 3.07394C3.76158 2.38631 4.69421 2 5.66667 2H7.66667C7.93188 2 8.18624 2.10536 8.37377 2.29289C8.56131 2.48043 8.66667 2.73478 8.66667 3C8.66667 3.26522 8.56131 3.51957 8.37377 3.70711C8.18624 3.89464 7.93188 4 7.66667 4H5.66667C4.74667 4 4 4.74667 4 5.66667V7.66667C4 7.93188 3.89464 8.18624 3.70711 8.37377C3.51957 8.56131 3.26522 8.66667 3 8.66667C2.73478 8.66667 2.48043 8.56131 2.29289 8.37377C2.10536 8.18624 2 7.93188 2 7.66667V5.66667ZM24 3C24 2.73478 24.1054 2.48043 24.2929 2.29289C24.4804 2.10536 24.7348 2 25 2H27C27.9725 2 28.9051 2.38631 29.5927 3.07394C30.2804 3.76158 30.6667 4.69421 30.6667 5.66667V7.66667C30.6667 7.93188 30.5613 8.18624 30.3738 8.37377C30.1862 8.56131 29.9319 8.66667 29.6667 8.66667C29.4015 8.66667 29.1471 8.56131 28.9596 8.37377C28.772 8.18624 28.6667 7.93188 28.6667 7.66667V5.66667C28.6667 4.74667 27.92 4 27 4H25C24.7348 4 24.4804 3.89464 24.2929 3.70711C24.1054 3.51957 24 3.26522 24 3ZM3 23.3333C3.26522 23.3333 3.51957 23.4387 3.70711 23.6262C3.89464 23.8138 4 24.0681 4 24.3333V26.3333C4 27.2533 4.74667 28 5.66667 28H7.66667C7.93188 28 8.18624 28.1054 8.37377 28.2929C8.56131 28.4804 8.66667 28.7348 8.66667 29C8.66667 29.2652 8.56131 29.5196 8.37377 29.7071C8.18624 29.8946 7.93188 30 7.66667 30H5.66667C4.69421 30 3.76158 29.6137 3.07394 28.9261C2.38631 28.2384 2 27.3058 2 26.3333V24.3333C2 24.0681 2.10536 23.8138 2.29289 23.6262C2.48043 23.4387 2.73478 23.3333 3 23.3333ZM29.6667 23.3333C29.9319 23.3333 30.1862 23.4387 30.3738 23.6262C30.5613 23.8138 30.6667 24.0681 30.6667 24.3333V26.3333C30.6667 27.3058 30.2804 28.2384 29.5927 28.9261C28.9051 29.6137 27.9725 30 27 30H25C24.7348 30 24.4804 29.8946 24.2929 29.7071C24.1054 29.5196 24 29.2652 24 29C24 28.7348 24.1054 28.4804 24.2929 28.2929C24.4804 28.1054 24.7348 28 25 28H27C27.92 28 28.6667 27.2533 28.6667 26.3333V24.3333C28.6667 24.0681 28.772 23.8138 28.9596 23.6262C29.1471 23.4387 29.4015 23.3333 29.6667 23.3333Z" fill="#0F6CBD"/>
<g clip-path="url(#clip0_44_28497)">
<path d="M8 9C8 8.73478 8.10536 8.48043 8.29289 8.29289C8.48043 8.10536 8.73478 8 9 8H13C13.2652 8 13.5196 8.10536 13.7071 8.29289C13.8946 8.48043 14 8.73478 14 9V13C14 13.2652 13.8946 13.5196 13.7071 13.7071C13.5196 13.8946 13.2652 14 13 14H9C8.73478 14 8.48043 13.8946 8.29289 13.7071C8.10536 13.5196 8 13.2652 8 13V9Z" stroke="#0F6CBD" stroke-width="1.5" stroke-linecap="round" stroke-linejoin="round"/>
<path d="M11 21V21.01" stroke="#0F6CBD" stroke-width="1.5" stroke-linecap="round" stroke-linejoin="round"/>
<path d="M18 9C18 8.73478 18.1054 8.48043 18.2929 8.29289C18.4804 8.10536 18.7348 8 19 8H23C23.2652 8 23.5196 8.10536 23.7071 8.29289C23.8946 8.48043 24 8.73478 24 9V13C24 13.2652 23.8946 13.5196 23.7071 13.7071C23.5196 13.8946 23.2652 14 23 14H19C18.7348 14 18.4804 13.8946 18.2929 13.7071C18.1054 13.5196 18 13.2652 18 13V9Z" stroke="#0F6CBD" stroke-width="1.5" stroke-linecap="round" stroke-linejoin="round"/>
<path d="M11 11V11.01" stroke="#0F6CBD" stroke-width="1.5" stroke-linecap="round" stroke-linejoin="round"/>
<path d="M8 19C8 18.7348 8.10536 18.4804 8.29289 18.2929C8.48043 18.1054 8.73478 18 9 18H13C13.2652 18 13.5196 18.1054 13.7071 18.2929C13.8946 18.4804 14 18.7348 14 19V23C14 23.2652 13.8946 23.5196 13.7071 23.7071C13.5196 23.8946 13.2652 24 13 24H9C8.73478 24 8.48043 23.8946 8.29289 23.7071C8.10536 23.5196 8 23.2652 8 23V19Z" stroke="#0F6CBD" stroke-width="1.5" stroke-linecap="round" stroke-linejoin="round"/>
<path d="M21 11V11.01" stroke="#0F6CBD" stroke-width="1.5" stroke-linecap="round" stroke-linejoin="round"/>
<path d="M18 18H21" stroke="#0F6CBD" stroke-width="1.5" stroke-linecap="round" stroke-linejoin="round"/>
<path d="M24 18V18.01" stroke="#0F6CBD" stroke-width="1.5" stroke-linecap="round" stroke-linejoin="round"/>
<path d="M18 18V21" stroke="#0F6CBD" stroke-width="1.5" stroke-linecap="round" stroke-linejoin="round"/>
<path d="M18 24H21" stroke="#0F6CBD" stroke-width="1.5" stroke-linecap="round" stroke-linejoin="round"/>
<path d="M21 21H24" stroke="#0F6CBD" stroke-width="1.5" stroke-linecap="round" stroke-linejoin="round"/>
<path d="M24 21V24" stroke="#0F6CBD" stroke-width="1.5" stroke-linecap="round" stroke-linejoin="round"/>
</g>
<defs>
<clipPath id="clip0_44_28497">
<rect width="24" height="24" fill="white" transform="translate(4 4)"/>
</clipPath>
</defs>
</svg>
